<svg xmlns="http://www.w3.org/2000/svg" width="13" height="17" viewBox="0 0 13 17" fill="none">
  <path fill-rule="evenodd" clip-rule="evenodd" d="M10.8406 5.37512H2.15936C1.68014 5.37512 1.29166 5.76361 1.29166 6.24283V13.1876C1.29166 14.6259 2.45758 15.7918 3.89582 15.7918H9.10416C9.79483 15.7918 10.4572 15.5174 10.9456 15.029C11.434 14.5407 11.7083 13.8783 11.7083 13.1876V6.24283C11.7083 5.76361 11.3198 5.37512 10.8406 5.37512Z" stroke="#B3B7EE" stroke-width="1.5" stroke-linecap="round" stroke-linejoin="round"/>
  <path fill-rule="evenodd" clip-rule="evenodd" d="M9.625 3.29176L9.51458 3.07197C8.94365 1.92984 7.77637 1.20834 6.49948 1.20834C5.22259 1.20834 4.05531 1.92984 3.48437 3.07197L3.375 3.29176H9.625Z" stroke="#B3B7EE" stroke-width="1.5" stroke-linecap="round" stroke-linejoin="round"/>
  <path d="M5.51353 8.84702C5.51353 8.4328 5.17775 8.09702 4.76353 8.09702C4.34932 8.09702 4.01353 8.4328 4.01353 8.84702H5.51353ZM4.01353 12.3189C4.01353 12.7331 4.34932 13.0689 4.76353 13.0689C5.17775 13.0689 5.51353 12.7331 5.51353 12.3189H4.01353ZM8.98645 8.84702C8.98645 8.4328 8.65066 8.09702 8.23645 8.09702C7.82223 8.09702 7.48645 8.4328 7.48645 8.84702H8.98645ZM7.48645 12.3189C7.48645 12.7331 7.82223 13.0689 8.23645 13.0689C8.65066 13.0689 8.98645 12.7331 8.98645 12.3189H7.48645ZM9.62499 2.54181C9.21078 2.54181 8.87499 2.8776 8.87499 3.29181C8.87499 3.70602 9.21078 4.04181 9.62499 4.04181V2.54181ZM11.7083 4.04181C12.1225 4.04181 12.4583 3.70602 12.4583 3.29181C12.4583 2.8776 12.1225 2.54181 11.7083 2.54181V4.04181ZM3.37499 4.04181C3.7892 4.04181 4.12499 3.70602 4.12499 3.29181C4.12499 2.8776 3.7892 2.54181 3.37499 2.54181V4.04181ZM1.29166 2.54181C0.877443 2.54181 0.541656 2.8776 0.541656 3.29181C0.541656 3.70602 0.877443 4.04181 1.29166 4.04181V2.54181ZM4.01353 8.84702V12.3189H5.51353V8.84702H4.01353ZM7.48645 8.84702V12.3189H8.98645V8.84702H7.48645ZM9.62499 4.04181H11.7083V2.54181H9.62499V4.04181ZM3.37499 2.54181H1.29166V4.04181H3.37499V2.54181Z" fill="#B3B7EE"/>
</svg>